#!OML:ASF I:\salsa\salsa 7_09\Patient 1\Session 1\dancerfemale.ASF
:FULLY-SPECIFIED
:DEGREES
1767
root 12.8482 16.1975 4.42266 538.178 602.782 188.705
lowerback 0.744729 5.44767 1.23055
upperback -8.01581 7.28465 0.265617
thorax -8.72576 3.4479 -0.987419
lowerneck 5.65059 -6.59751 -8.69951
upperneck 7.4688 -9.92518 10.0181
head 2.22019 -5.10653 4.33276
rclavicle -5.60573e-014 -8.74653e-015
rhumerus -37.3371 18.6516 -107.896
rradius 102.182
rwrist -14.157
rhand 4.15556 44.5729
rfingers 7.12502
rthumb 29.5642 16.9075
lclavicle -5.60573e-014 -8.74653e-015
lhumerus -39.1512 -1.8634 41.3799
lradius 134.024
lwrist -2.97081
lhand 15.765 55.4128
lfingers 7.12502
lthumb 40.5712 80.464
rfemur -33.4965 2.19917 14.1749
rtibia 35.8809
rfoot -6.90639 6.68382
rtoes -34.2499
lfemur -2.89261 -2.49683 -26.9892
ltibia 26.2773
lfoot -17.9214 -11.0236
ltoes -1.54477
1768
root 13.0302 16.1579 4.38831 536.152 604.456 189.834
lowerback 1.84264 5.13704 0.607472
upperback -7.76017 6.87549 0.508481
thorax -9.20376 3.29385 -0.46116
lowerneck 5.62496 -5.99637 -8.84946
upperneck 7.52326 -9.13875 10.2175
head 2.1776 -4.718 4.43935
rclavicle -3.12092e-014 0
rhumerus -36.92 18.8515 -108.251
rradius 101.73
rwrist -13.8942
rhand 4.82384 43.5144
rfingers 7.12502
rthumb 30.2019 15.9639
lclavicle -3.12092e-014 0
lhumerus -36.1501 -0.425544 41.3352
lradius 133.319
lwrist -5.14415
lhand 14.3083 54.0677
lfingers 7.12502
lthumb 39.2002 79.5301
rfemur -33.2017 3.03424 13.8369
rtibia 37.0476
rfoot -7.68716 4.81907
rtoes -34.6549
lfemur -2.7569 -0.874083 -27.4392
ltibia 26.9415
lfoot -18.7643 -12.0683
ltoes -1.95303
1769
root 13.2071 16.1169 4.34189 533.848 605.702 191.179
lowerback 2.8774 4.78677 -0.0496888
upperback -7.39351 6.38388 0.571139
thorax -9.4939 3.10167 -0.0673962
lowerneck 5.57033 -5.51789 -8.71399
upperneck 7.51881 -8.49038 10.3041
head 2.11748 -4.39126 4.46029
rclavicle 4.27387e-014 1.35174e-014
rhumerus -36.5804 18.8608 -108.917
rradius 101.238
rwrist -13.7926
rhand 4.88889 42.9965
rfingers 7.12502
rthumb 30.264 15.4573
lclavicle 4.27387e-014 1.35174e-014
lhumerus -32.9323 0.948728 41.7972
lradius 132.544
lwrist -7.49919
lhand 12.3301 52.6008
lfingers 7.12502
lthumb 37.3328 78.5785
rfemur -32.6715 3.83109 13.4398
rtibia 38.4968
rfoot -8.68933 2.61747
rtoes -34.5382
lfemur -2.66 0.948697 -27.8898
ltibia 27.683
lfoot -19.6951 -12.9312
ltoes -1.89392
1770
root 13.4008 16.0684 4.28488 532.399 605.981 192.602
lowerback 3.30605 4.2189 -0.820737
upperback -7.39341 5.5495 0.420587
thorax -9.80151 2.74139 0.255302
lowerneck 5.39856 -5.11256 -8.52768
upperneck 7.70168 -7.95155 10.4323
head 2.14208 -4.11338 4.47573
rclavicle 8.34896e-015 7.95139e-016
rhumerus -36.5686 18.8387 -109.802
rradius 100.728
rwrist -13.5139
rhand 4.81961 42.6901
rfingers 7.12502
rthumb 30.1979 15.1389
lclavicle 8.34896e-015 7.95139e-016
lhumerus -29.7915 2.04966 42.7421
lradius 131.689
lwrist -9.82062
lhand 9.84087 50.9588
lfingers 7.12502
lthumb 34.9754 77.5206
rfemur -33.0791 3.34273 12.8501
rtibia 40.1785
rfoot -9.51599 0.985339
rtoes -34.5926
lfemur -3.81415 2.1439 -28.5571
ltibia 28.5449
lfoot -20.2639 -13.496
ltoes -0.669254
1771
root 13.5729 16.0161 4.24451 530.153 606.583 194.349
lowerback 3.96355 3.8505 -1.39854
upperback -7.22138 4.98649 0.191533
thorax -10.0222 2.49893 0.358621
lowerneck 5.13245 -4.75063 -8.2458
upperneck 7.98384 -7.46423 10.4595
head 2.21017 -3.85615 4.43935
rclavicle 8.54774e-015 6.36111e-015
rhumerus -36.9447 18.9527 -110.828
rradius 100.309
rwrist -12.7863
rhand 4.42138 42.4532
rfingers 7.12502
rthumb 29.8179 14.8332
lclavicle 8.54774e-015 6.36111e-015
lhumerus -26.7218 2.98701 44.1093
lradius 130.717
lwrist -11.8217
lhand 7.29846 48.991
lfingers 7.12502
lthumb 32.5597 76.0831
rfemur -32.8451 2.97679 12.2843
rtibia 41.9989
rfoot -10.5972 -0.294265
rtoes -34.9504
lfemur -4.24858 3.92693 -29.3089
ltibia 29.3415
lfoot -20.9469 -13.8758
ltoes 1.43853
1772
root 13.7391 15.977 4.21181 528.831 607.067 195.723
lowerback 3.91674 3.45212 -1.84839
upperback -7.13503 4.39967 0.0665641
thorax -9.90889 2.24177 0.557383
lowerneck 4.72473 -4.39981 -8.04357
upperneck 8.21982 -6.96455 10.2915
head 2.28548 -3.59196 4.35285
rclavicle 2.66371e-014 -2.38542e-015
rhumerus -37.3948 19.4396 -111.67
rradius 99.9075
rwrist -12.0675
rhand 3.73931 42.4882
rfingers 7.12502
rthumb 29.1668 14.7533
lclavicle 2.66371e-014 -2.38542e-015
lhumerus -23.8639 3.98566 45.8972
lradius 129.677
lwrist -13.193
lhand 4.67797 46.8791
lfingers 7.12502
lthumb 30.0628 74.455
rfemur -33.086 2.28852 11.8725
rtibia 43.8752
rfoot -11.9257 -1.59124
rtoes -34.391
lfemur -5.23488 5.35769 -30.0363
ltibia 29.9732
lfoot -21.51 -13.9794
ltoes 3.3896
1773
root 13.8977 15.9428 4.17772 527.611 607.484 197.17
lowerback 3.72946 3.04633 -2.36571
upperback -7.13746 3.7984 -0.0490306
thorax -9.80989 1.9816 0.809579
lowerneck 4.41541 -3.99892 -8.02583
upperneck 8.38423 -6.41517 10.2851
head 2.33087 -3.30919 4.35171
rclavicle -2.18663e-015 7.95139e-015
rhumerus -37.9579 19.8959 -112.373
rradius 99.6322
rwrist -12.2716
rhand 4.58078 42.7118
rfingers 7.12502
rthumb 29.97 15.1191
lclavicle -2.18663e-015 7.95139e-015
lhumerus -21.5455 4.70299 47.7411
lradius 128.786
lwrist -13.6114
lhand 2.06187 44.8943
lfingers 7.12502
lthumb 27.5638 72.896
rfemur -33.3476 1.5311 11.4656
rtibia 45.7434
rfoot -13.4078 -3.1511
rtoes -32.6954
lfemur -6.20615 6.5189 -30.8529
ltibia 30.2266
lfoot -22.0591 -13.8802
ltoes 5.03651
1774
root 14.0497 15.9096 4.14369 525.764 607.922 199.175
lowerback 3.72514 2.75363 -2.75832
upperback -7.21129 3.32728 -0.480036
thorax -9.86889 1.76037 0.627994
lowerneck 4.37346 -3.64618 -7.70429
upperneck 8.40494 -5.94029 10.3851
head 2.29098 -3.06309 4.33939
rclavicle -5.20816e-014 -5.56597e-015
rhumerus -38.6143 19.9599 -113.278
rradius 99.4861
rwrist -13.0056
rhand 6.88724 42.7712
rfingers 7.12502
rthumb 32.1684 15.5992
lclavicle -5.20816e-014 -5.56597e-015
lhumerus -19.5266 4.80701 49.3151
lradius 127.992
lwrist -13.182
lhand -0.35708 43.3084
lfingers 7.12502
lthumb 25.2483 71.6579
rfemur -33.3117 0.789424 10.876
rtibia 47.4464
rfoot -13.9204 -4.57937
rtoes -34.8183
lfemur -6.97646 7.22739 -31.9428
ltibia 30.3668
lfoot -22.7771 -13.1568
ltoes 6.8188
1775
root 14.1961 15.8761 4.11629 523.75 608.494 201.308
lowerback 3.51211 2.61527 -3.40073
upperback -7.12148 3.07635 -0.681716
thorax -9.6621 1.6742 0.815627
lowerneck 4.32215 -3.42475 -7.25376
upperneck 8.17851 -5.58114 10.0628
head 2.17991 -2.87688 4.17308
rclavicle -1.20364e-013 -3.97569e-015
rhumerus -39.2314 20.307 -113.674
rradius 99.3604
rwrist -13.5947
rhand 8.01724 42.816
rfingers 7.12502
rthumb 33.2434 15.8674
lclavicle -1.20364e-013 -3.97569e-015
lhumerus -17.7428 4.81939 51.4113
lradius 127.129
lwrist -12.5805
lhand -2.70139 42.2004
lfingers 7.12502
lthumb 23.0005 70.8481
rfemur -33.0457 0.301096 10.2564
rtibia 48.9969
rfoot -15.3159 -6.29084
rtoes -32.9944
lfemur -7.65016 7.05666 -33.1117
ltibia 30.4865
lfoot -23.4133 -11.6229
ltoes 8.5895
1776
root 14.3351 15.8599 4.10248 524.148 609.755 200.354
lowerback 4.04092 2.41802 -1.84401
upperback -7.08954 2.90212 -1.01906
thorax -9.81949 1.45946 -0.40828
lowerneck 4.11909 -3.02625 -6.70311
upperneck 8.26106 -5.04585 10.2646
head 2.17905 -2.5883 4.14945
rclavicle 4.6615e-014 1.90833e-014
rhumerus -40.2105 20.6588 -115.149
rradius 99.1077
rwrist -13.67
rhand 7.00717 43.0763
rfingers 7.12502
rthumb 32.2825 15.9274
lclavicle 4.6615e-014 1.90833e-014
lhumerus -16.4034 4.6931 52.2933
lradius 126.221
lwrist -11.5994
lhand -4.62763 41.4891
lfingers 7.12502
lthumb 21.1512 70.3554
rfemur -31.9468 0.564406 11.0277
rtibia 50.2567
rfoot -16.4513 -7.77983
rtoes -31.5222
lfemur -7.8135 6.36029 -32.8094
ltibia 30.7699
lfoot -24.1914 -9.70533
ltoes 10.0015
1777
root 14.4754 15.8483 4.09256 524.822 611.242 199.041
lowerback 4.36379 2.36418 -0.969905
upperback -6.79517 2.95203 -0.606523
thorax -9.65833 1.44187 -0.468976
lowerneck 3.67048 -2.67932 -6.97002
upperneck 8.28211 -4.55244 10.2433
head 2.22061 -2.33555 4.18768
rclavicle 3.16068e-014 1.19271e-014
rhumerus -41.2316 21.5307 -115.312
rradius 98.9796
rwrist -13.5629
rhand 7.53959 43.9058
rfingers 7.12502
rthumb 32.7892 16.8613
lclavicle 3.16068e-014 1.19271e-014
lhumerus -15.3826 5.00528 54.2773
lradius 125.315
lwrist -10.6295
lhand -6.19868 41.1227
lfingers 7.12502
lthumb 19.6414 70.1504
rfemur -30.603 1.01315 11.8667
rtibia 51.4049
rfoot -16.5961 -8.63121
rtoes -31.9395
lfemur -7.94643 5.50061 -32.3137
ltibia 31.2108
lfoot -25.1196 -7.68754
ltoes 11.1011
1778
root 14.6186 15.8371 4.07507 525.58 612.964 197.597
lowerback 4.85509 2.44315 -0.128579
upperback -6.4443 3.18391 -0.159638
thorax -9.54135 1.51827 -0.506505
lowerneck 3.16778 -2.38969 -7.24605
upperneck 8.27727 -4.12651 10.2137
head 2.26877 -2.11506 4.22416
rclavicle 4.50247e-014 1.51076e-014
rhumerus -42.1263 22.0627 -115.081
rradius 98.8582
rwrist -13.821
rhand 8.69409 44.4204
rfingers 7.12502
rthumb 33.8867 17.6115
lclavicle 4.50247e-014 1.51076e-014
lhumerus -14.3821 5.28013 56.1981
lradius 124.371
lwrist -9.71393
lhand -7.68497 41.0696
lfingers 7.12502
lthumb 18.2119 70.2371
rfemur -29.1815 1.65402 12.738
rtibia 52.6917
rfoot -16.3503 -9.38844
rtoes -30.8403
lfemur -8.02527 4.67876 -31.7209
ltibia 31.5362
lfoot -25.7682 -5.46677
ltoes 11.4555
1779
root 14.7618 15.833 4.05909 525.796 614.476 196.67
lowerback 5.62013 2.46585 0.78915
upperback -6.15772 3.32739 -0.045492
thorax -9.6333 1.53044 -0.94471
lowerneck 2.76755 -2.08738 -7.20986
upperneck 8.28479 -3.70047 10.3234
head 2.29883 -1.88773 4.25433
rclavicle -1.19271e-015 -8.74653e-015
rhumerus -43.219 22.115 -115.233
rradius 98.6543
rwrist -14.2934
rhand 9.63961 44.9458
rfingers 7.12502
rthumb 34.7844 18.3397
lclavicle -1.19271e-015 -8.74653e-015
lhumerus -13.552 5.40448 57.5709
lradius 123.348
lwrist -8.91867
lhand -8.74391 40.9424
lfingers 7.12502
lthumb 17.1929 70.2018
rfemur -27.6692 1.83384 13.3194
rtibia 54.1737
rfoot -16.2937 -9.86656
rtoes -28.873
lfemur -7.94039 3.70687 -31.3765
ltibia 31.6606
lfoot -25.9979 -3.24496
ltoes 12.1508
1780
root 14.8849 15.8314 4.0113 519.031 615.466 203.86
lowerback 5.39149 2.61446 -0.860728
upperback -6.09937 3.31992 -0.512362
thorax -9.50284 1.62356 -0.506929
lowerneck 2.34138 -1.76402 -7.18867
upperneck 8.40012 -3.27522 10.6696
head 2.36719 -1.65558 4.361
rclavicle -7.38485e-014 -9.54166e-015
rhumerus -44.4468 21.9544 -115.514
rradius 98.4628
rwrist -14.4487
rhand 10.1554 45.31
rfingers 7.12502
rthumb 35.2737 18.8183
lclavicle -7.38485e-014 -9.54166e-015
lhumerus -12.8576 5.59228 58.5903
lradius 122.151
lwrist -8.04676
lhand -9.11106 40.5951
lfingers 7.12502
lthumb 16.8395 69.8849
rfemur -27.425 1.86774 11.5392
rtibia 56.0255
rfoot -15.6344 -9.57393
rtoes -29.2882
lfemur -8.73427 3.23358 -33.1431
ltibia 31.5428
lfoot -25.8885 -1.57526
ltoes 13.605
